<?xml version="1.0" standalone="no"?>
<!DOCTYPE svg PUBLIC "-//W3C//DTD SVG 20010904//EN"
 "http://www.w3.org/TR/2001/REC-SVG-20010904/DTD/svg10.dtd">
<svg version="1.0" xmlns="http://www.w3.org/2000/svg"
 width="361.000000pt" height="361.000000pt" viewBox="0 0 361.000000 361.000000"
 preserveAspectRatio="xMidYMid meet">

<g transform="translate(0.000000,361.000000) scale(0.100000,-0.100000)"
fill="#000000" stroke="none">
<path d="M1251 3114 c-26 -22 -31 -33 -31 -70 0 -50 32 -93 70 -95 11 -1 26
-2 33 -3 9 -1 13 -83 15 -368 l2 -366 -153 -259 c-533 -895 -525 -881 -514
-991 13 -124 105 -235 224 -272 63 -19 92 -20 892 -20 892 0 905 1 994 54 94
54 153 173 145 290 -5 76 -28 125 -166 356 -54 91 -145 244 -202 340 -57 96
-148 249 -202 340 l-98 164 0 362 0 361 41 9 c80 17 111 107 56 162 l-27 27
-524 3 -524 3 -31 -27z m824 -259 l0 -90 -96 0 c-113 0 -139 -14 -139 -72 0
-60 25 -73 140 -73 l101 0 -3 -77 -3 -78 -100 -3 c-115 -3 -135 -14 -135 -72
0 -58 20 -69 135 -72 l100 -3 5 -90 5 -90 126 -210 c70 -115 145 -243 167
-283 l41 -72 -27 -14 c-70 -36 -244 -47 -337 -22 -57 15 -133 52 -221 107
-172 109 -323 133 -501 78 -36 -11 -66 -19 -68 -17 -2 2 54 102 125 222 90
152 131 231 136 261 3 24 4 182 2 352 -2 169 -2 332 0 361 l4 52 271 -2 272
-3 0 -90z m-445 -1320 c42 -22 70 -74 70 -130 0 -42 -5 -52 -38 -85 -68 -68
-157 -60 -209 19 -75 113 56 259 177 196z m421 -314 c38 -39 40 -97 5 -138
-20 -23 -32 -28 -71 -28 -39 0 -51 5 -71 28 -82 95 48 226 137 138z"/>
</g>
</svg>
